<svg id="Слой_1" data-name="Слой 1" xmlns="http://www.w3.org/2000/svg" viewBox="0 0 387.77 481.95"><defs><style>.cls-1{fill:#ec644b;}</style></defs><path class="cls-1" d="M441.63,456.36c-2.53,2.88-4,4.81-5.75,6.5C423.15,475.31,411,488.46,397.47,500,380.88,514,353.4,514.86,335,503.59c-19.59-12-29.41-29.53-28.85-52.4.34-13.79,5-26.48,14.82-36.38q69.71-70.23,139.83-140c20.76-20.64,56.43-21.11,77.36-.72,30,29.16,59.29,59,88.87,88.53,16,16,31.91,32.14,48,48,24.17,23.78,25.23,60.47,2.23,83.6a57.84,57.84,0,0,1-81.66.29c-11.81-11.74-23.54-23.57-35.32-35.36-.79-.79-1.64-1.51-3-2.8-.14,2.09-.32,3.49-.31,4.88q0,80.69.11,161.38c0,21.66.1,43.31-.24,65-.4,25.05-22.82,49.08-47.68,52.68-20.26,2.94-37.35-2.8-51.45-17.1-10.63-10.77-15.89-24.18-15.88-39.44q0-80.69.12-161.36,0-30.74,0-61.45C441.94,460,441.82,459,441.63,456.36Z" transform="translate(-306.12 -259.02)"/></svg>